# xmcd
#
# Track frame offsets:
#	150
#	12080
#	26122
#	37932
#	57602
#	75290
#	90745
#	108892
#	124715
#	140800
#
# Disc length: 2070 seconds
#
# Revision: 3
# Processed by: cddbd v1.4PL0 Copyright (c) Steve Scherf et al.
# Submitted via: EasyCDDAExtractor 4.5.0.2
#
DISCID=7908140a
DTITLE=Alan Jackson - Everything I Love
DYEAR=1996
DGENRE=Country
TTITLE0=Little Bitty
TTITLE1=Everything I Love
TTITLE2=Buicks To The Moon
TTITLE3=Between The Devil And Me
TTITLE4=There Goes
TTITLE5=A House With No Curtains
TTITLE6=Who's Cheatin' Who
TTITLE7=Walk On The Rocks
TTITLE8=Must've Had A Ball
TTITLE9=It's Time You Learned About Good-bye
EXTD=
EXTT0=
EXTT1=
EXTT2=
EXTT3=
EXTT4=
EXTT5=
EXTT6=
EXTT7=
EXTT8=
EXTT9=
PLAYORDER=
